<?xml version="1.0" encoding="utf-8"?>
<!-- Generator: Adobe Illustrator 24.1.1, SVG Export Plug-In . SVG Version: 6.00 Build 0)  -->
<svg version="1.1" id="Layer_1" xmlns="http://www.w3.org/2000/svg" xmlns:xlink="http://www.w3.org/1999/xlink" x="0px" y="0px"
	 viewBox="0 0 512 512" style="enable-background:new 0 0 512 512;" xml:space="preserve">
<g>
	<circle cx="188.52" cy="253.05" r="60.53"/>
	<path d="M323.3,192.52c33.4,0,60.5,27.1,60.5,60.53s-27.1,60.53-60.5,60.53c-33.42,0-60.52-27.1-60.52-60.53
		S289.88,192.52,323.3,192.52z"/>
	<path d="M256,460.8c113.13,0,204.8-91.7,204.8-204.8S369.13,51.2,256,51.2C142.9,51.2,51.2,142.9,51.2,256S142.9,460.8,256,460.8z
		 M256,512C114.63,512,0,397.35,0,256C0,114.6,114.63,0,256,0c141.4,0,256,114.6,256,256C512,397.35,397.4,512,256,512z"/>
</g>
</svg>
